<svg xmlns="http://www.w3.org/2000/svg" viewBox="0 0 77.22 34.07"><defs><style>.cls-1{fill:none;stroke:#1d1d1b;stroke-miterlimit:10;}</style></defs><g id="Calque_2" data-name="Calque 2"><g id="Calque_1-2" data-name="Calque 1"><path id="idée_sélectionné_" data-name="idée (sélectionné)" class="cls-1" d="M76.91,18.12C60.17,31.21,53.74,33.44,51.73,31.66c-2.72-2.4,2.73-12.62,1-13.54-2-1-10,10.44-10.89,9.84-.45-.33,1.63-3.66,2.09-9.13.22-2.55-.13-3.11-.47-3.33-1-.62-3.15.68-6.89,4.1-7.8,7.15-12.49,14.18-12.83,14s7.52-12.24,5.85-13.66c-.44-.37-1.46,0-4.35,1.9-10.08,6.54-12.4,11.36-17,11.07a8.74,8.74,0,0,1-5.38-2.66A8.12,8.12,0,0,1,.5,24.87c0-5.19,5.8-8.67,7.05-9.43,4.45-2.68,9.62-3.2,9.53-3.56s-2.26.43-4.77-.36c-.62-.19-2.69-.84-3.4-2.34-1.16-2.44,1.9-5.82,4.83-7.36,1.85-1,5-1.9,6.08-.87.8.76.16,2.29,0,2.69A6.52,6.52,0,0,1,16,6.86"/></g></g></svg>